<?xml version="1.0" encoding="UTF-8" standalone="no"?><!DOCTYPE svg PUBLIC "-//W3C//DTD SVG 1.1//EN" "http://www.w3.org/Graphics/SVG/1.1/DTD/svg11.dtd"><!-- Generated by graphviz version 2.40.1 (20161225.0304)
 --><!-- Title: %0 Pages: 1 --><svg xmlns="http://www.w3.org/2000/svg" xmlns:xlink="http://www.w3.org/1999/xlink" width="2426pt" height="692pt" viewBox="0.00 0.00 2426.25 692.00">
<g id="graph0" class="graph" transform="scale(1 1) rotate(0) translate(4 688)">
<title>%0</title>
<polygon fill="#ffffff" stroke="transparent" points="-4,4 -4,-688 2422.2486,-688 2422.2486,4 -4,4"/>
<!-- [root] data.oci_identity_availability_domain.ad (expand) -->
<g id="node1" class="node">
<title>[root] data.oci_identity_availability_domain.ad (expand)</title>
<polygon fill="none" stroke="#000000" points="1871.9883,-180 1626.188,-180 1626.188,-144 1871.9883,-144 1871.9883,-180"/>
<text text-anchor="middle" x="1749.0881" y="-157.8" font-family="Times,serif" font-size="14.00" fill="#000000">data.oci_identity_availability_domain.ad</text>
</g>
<!-- [root] provider[&quot;registry.terraform.io/hashicorp/oci&quot;] -->
<g id="node22" class="node">
<title>[root] provider["registry.terraform.io/hashicorp/oci"]</title>
<polygon fill="none" stroke="#000000" points="1509.0881,-36 1238.6906,-18 1509.0881,0 1779.4857,-18 1509.0881,-36"/>
<text text-anchor="middle" x="1509.0881" y="-13.8" font-family="Times,serif" font-size="14.00" fill="#000000">provider["registry.terraform.io/hashicorp/oci"]</text>
</g>
<!-- [root] data.oci_identity_availability_domain.ad (expand)&#45;&gt;[root] provider[&quot;registry.terraform.io/hashicorp/oci&quot;] -->
<g id="edge1" class="edge">
<title>[root] data.oci_identity_availability_domain.ad (expand)-&gt;[root] provider["registry.terraform.io/hashicorp/oci"]</title>
<path fill="none" stroke="#000000" d="M1718.692,-143.7623C1674.3741,-117.1716 1592.1736,-67.8513 1544.9542,-39.5197"/>
<polygon fill="#000000" stroke="#000000" points="1546.6556,-36.4588 1536.2799,-34.3151 1543.0541,-42.4613 1546.6556,-36.4588"/>
</g>
<!-- [root] var.compartment_id -->
<g id="node23" class="node">
<title>[root] var.compartment_id</title>
<polygon fill="none" stroke="#000000" points="1920.7208,-36 1797.4555,-36 1797.4555,0 1926.7208,0 1926.7208,-30 1920.7208,-36"/>
<polyline fill="none" stroke="#000000" points="1920.7208,-36 1920.7208,-30 "/>
<polyline fill="none" stroke="#000000" points="1926.7208,-30 1920.7208,-30 "/>
<text text-anchor="middle" x="1862.0881" y="-13.8" font-family="Times,serif" font-size="14.00" fill="#000000">var.compartment_id</text>
</g>
<!-- [root] data.oci_identity_availability_domain.ad (expand)&#45;&gt;[root] var.compartment_id -->
<g id="edge2" class="edge">
<title>[root] data.oci_identity_availability_domain.ad (expand)-&gt;[root] var.compartment_id</title>
<path fill="none" stroke="#000000" d="M1748.7184,-143.6908C1749.2202,-124.1606 1752.6859,-93.182 1768.0881,-72 1777.4401,-59.1387 1790.8584,-48.8848 1804.6402,-40.9182"/>
<polygon fill="#000000" stroke="#000000" points="1806.5819,-43.847 1813.7102,-36.0088 1803.2497,-37.691 1806.5819,-43.847"/>
</g>
<!-- [root] oci_core_instance.stage (expand) -->
<g id="node2" class="node">
<title>[root] oci_core_instance.stage (expand)</title>
<polygon fill="none" stroke="#000000" points="960.9175,-468 811.2588,-468 811.2588,-432 960.9175,-432 960.9175,-468"/>
<text text-anchor="middle" x="886.0881" y="-445.8" font-family="Times,serif" font-size="14.00" fill="#000000">oci_core_instance.stage</text>
</g>
<!-- [root] oci_core_subnet.private (expand) -->
<g id="node10" class="node">
<title>[root] oci_core_subnet.private (expand)</title>
<polygon fill="none" stroke="#000000" points="961.204,-324 810.9723,-324 810.9723,-288 961.204,-288 961.204,-324"/>
<text text-anchor="middle" x="886.0881" y="-301.8" font-family="Times,serif" font-size="14.00" fill="#000000">oci_core_subnet.private</text>
</g>
<!-- [root] oci_core_instance.stage (expand)&#45;&gt;[root] oci_core_subnet.private (expand) -->
<g id="edge16" class="edge">
<title>[root] oci_core_instance.stage (expand)-&gt;[root] oci_core_subnet.private (expand)</title>
<path fill="none" stroke="#000000" d="M886.0881,-431.7623C886.0881,-407.201 886.0881,-363.2474 886.0881,-334.3541"/>
<polygon fill="#000000" stroke="#000000" points="889.5882,-334.0896 886.0881,-324.0896 882.5882,-334.0897 889.5882,-334.0896"/>
</g>
<!-- [root] var.instance_image -->
<g id="node24" class="node">
<title>[root] var.instance_image</title>
<polygon fill="none" stroke="#000000" points="1032.5442,-396 913.6321,-396 913.6321,-360 1038.5442,-360 1038.5442,-390 1032.5442,-396"/>
<polyline fill="none" stroke="#000000" points="1032.5442,-396 1032.5442,-390 "/>
<polyline fill="none" stroke="#000000" points="1038.5442,-390 1032.5442,-390 "/>
<text text-anchor="middle" x="976.0881" y="-373.8" font-family="Times,serif" font-size="14.00" fill="#000000">var.instance_image</text>
</g>
<!-- [root] oci_core_instance.stage (expand)&#45;&gt;[root] var.instance_image -->
<g id="edge17" class="edge">
<title>[root] oci_core_instance.stage (expand)-&gt;[root] var.instance_image</title>
<path fill="none" stroke="#000000" d="M908.7989,-431.8314C919.8841,-422.9632 933.3835,-412.1637 945.3733,-402.5718"/>
<polygon fill="#000000" stroke="#000000" points="947.7623,-405.1429 953.3846,-396.1628 943.3894,-399.6768 947.7623,-405.1429"/>
</g>
<!-- [root] var.instance_shape -->
<g id="node25" class="node">
<title>[root] var.instance_shape</title>
<polygon fill="none" stroke="#000000" points="1172.2068,-396 1055.9695,-396 1055.9695,-360 1178.2068,-360 1178.2068,-390 1172.2068,-396"/>
<polyline fill="none" stroke="#000000" points="1172.2068,-396 1172.2068,-390 "/>
<polyline fill="none" stroke="#000000" points="1178.2068,-390 1172.2068,-390 "/>
<text text-anchor="middle" x="1117.0881" y="-373.8" font-family="Times,serif" font-size="14.00" fill="#000000">var.instance_shape</text>
</g>
<!-- [root] oci_core_instance.stage (expand)&#45;&gt;[root] var.instance_shape -->
<g id="edge18" class="edge">
<title>[root] oci_core_instance.stage (expand)-&gt;[root] var.instance_shape</title>
<path fill="none" stroke="#000000" d="M944.081,-431.9243C976.072,-421.9531 1015.9653,-409.5188 1049.3794,-399.104"/>
<polygon fill="#000000" stroke="#000000" points="1050.5659,-402.4004 1059.0714,-396.0831 1048.4829,-395.7174 1050.5659,-402.4004"/>
</g>
<!-- [root] var.ssh_public_key -->
<g id="node26" class="node">
<title>[root] var.ssh_public_key</title>
<polygon fill="none" stroke="#000000" points="742.5638,-396 623.6124,-396 623.6124,-360 748.5638,-360 748.5638,-390 742.5638,-396"/>
<polyline fill="none" stroke="#000000" points="742.5638,-396 742.5638,-390 "/>
<polyline fill="none" stroke="#000000" points="748.5638,-390 742.5638,-390 "/>
<text text-anchor="middle" x="686.0881" y="-373.8" font-family="Times,serif" font-size="14.00" fill="#000000">var.ssh_public_key</text>
</g>
<!-- [root] oci_core_instance.stage (expand)&#45;&gt;[root] var.ssh_public_key -->
<g id="edge19" class="edge">
<title>[root] oci_core_instance.stage (expand)-&gt;[root] var.ssh_public_key</title>
<path fill="none" stroke="#000000" d="M835.8778,-431.9243C808.5367,-422.0815 774.5287,-409.8386 745.8306,-399.5073"/>
<polygon fill="#000000" stroke="#000000" points="746.9135,-396.1773 736.3191,-396.0831 744.5424,-402.7635 746.9135,-396.1773"/>
</g>
<!-- [root] var.user_data -->
<g id="node28" class="node">
<title>[root] var.user_data</title>
<polygon fill="none" stroke="#000000" points="851.6029,-396 766.5733,-396 766.5733,-360 857.6029,-360 857.6029,-390 851.6029,-396"/>
<polyline fill="none" stroke="#000000" points="851.6029,-396 851.6029,-390 "/>
<polyline fill="none" stroke="#000000" points="857.6029,-390 851.6029,-390 "/>
<text text-anchor="middle" x="812.0881" y="-373.8" font-family="Times,serif" font-size="14.00" fill="#000000">var.user_data</text>
</g>
<!-- [root] oci_core_instance.stage (expand)&#45;&gt;[root] var.user_data -->
<g id="edge20" class="edge">
<title>[root] oci_core_instance.stage (expand)-&gt;[root] var.user_data</title>
<path fill="none" stroke="#000000" d="M867.4148,-431.8314C858.5632,-423.219 847.8395,-412.7851 838.1987,-403.4048"/>
<polygon fill="#000000" stroke="#000000" points="840.3635,-400.6279 830.7555,-396.1628 835.482,-405.645 840.3635,-400.6279"/>
</g>
<!-- [root] oci_core_internet_gateway.internet_gateway (expand) -->
<g id="node3" class="node">
<title>[root] oci_core_internet_gateway.internet_gateway (expand)</title>
<polygon fill="none" stroke="#000000" points="1569.5888,-180 1302.5875,-180 1302.5875,-144 1569.5888,-144 1569.5888,-180"/>
<text text-anchor="middle" x="1436.0881" y="-157.8" font-family="Times,serif" font-size="14.00" fill="#000000">oci_core_internet_gateway.internet_gateway</text>
</g>
<!-- [root] oci_core_vcn.internal (expand) -->
<g id="node12" class="node">
<title>[root] oci_core_vcn.internal (expand)</title>
<polygon fill="none" stroke="#000000" points="1528.7597,-108 1391.4165,-108 1391.4165,-72 1528.7597,-72 1528.7597,-108"/>
<text text-anchor="middle" x="1460.0881" y="-85.8" font-family="Times,serif" font-size="14.00" fill="#000000">oci_core_vcn.internal</text>
</g>
<!-- [root] oci_core_internet_gateway.internet_gateway (expand)&#45;&gt;[root] oci_core_vcn.internal (expand) -->
<g id="edge21" class="edge">
<title>[root] oci_core_internet_gateway.internet_gateway (expand)-&gt;[root] oci_core_vcn.internal (expand)</title>
<path fill="none" stroke="#000000" d="M1442.1443,-143.8314C1444.7394,-136.0463 1447.8305,-126.7729 1450.7099,-118.1347"/>
<polygon fill="#000000" stroke="#000000" points="1454.1084,-119.0069 1453.9504,-108.4133 1447.4676,-116.7933 1454.1084,-119.0069"/>
</g>
<!-- [root] oci_core_nat_gateway.nat_gateway (expand) -->
<g id="node4" class="node">
<title>[root] oci_core_nat_gateway.nat_gateway (expand)</title>
<polygon fill="none" stroke="#000000" points="870.2756,-180 653.9006,-180 653.9006,-144 870.2756,-144 870.2756,-180"/>
<text text-anchor="middle" x="762.0881" y="-157.8" font-family="Times,serif" font-size="14.00" fill="#000000">oci_core_nat_gateway.nat_gateway</text>
</g>
<!-- [root] oci_core_nat_gateway.nat_gateway (expand)&#45;&gt;[root] oci_core_vcn.internal (expand) -->
<g id="edge22" class="edge">
<title>[root] oci_core_nat_gateway.nat_gateway (expand)-&gt;[root] oci_core_vcn.internal (expand)</title>
<path fill="none" stroke="#000000" d="M870.4213,-145.0994C873.3394,-144.7194 876.2325,-144.352 879.0881,-144 1057.9968,-121.9438 1268.9035,-104.4594 1380.8834,-95.8477"/>
<polygon fill="#000000" stroke="#000000" points="1381.3741,-99.3205 1391.0777,-95.0673 1380.8397,-92.3409 1381.3741,-99.3205"/>
</g>
<!-- [root] oci_core_public_ip.test_reserved_ip (expand) -->
<g id="node5" class="node">
<title>[root] oci_core_public_ip.test_reserved_ip (expand)</title>
<polygon fill="none" stroke="#000000" points="1996.9104,-108 1777.2659,-108 1777.2659,-72 1996.9104,-72 1996.9104,-108"/>
<text text-anchor="middle" x="1887.0881" y="-85.8" font-family="Times,serif" font-size="14.00" fill="#000000">oci_core_public_ip.test_reserved_ip</text>
</g>
<!-- [root] oci_core_public_ip.test_reserved_ip (expand)&#45;&gt;[root] provider[&quot;registry.terraform.io/hashicorp/oci&quot;] -->
<g id="edge23" class="edge">
<title>[root] oci_core_public_ip.test_reserved_ip (expand)-&gt;[root] provider["registry.terraform.io/hashicorp/oci"]</title>
<path fill="none" stroke="#000000" d="M1792.1907,-71.9243C1729.6538,-60.0125 1648.6628,-44.5856 1589.3386,-33.2858"/>
<polygon fill="#000000" stroke="#000000" points="1589.7462,-29.8006 1579.2679,-31.3676 1588.4364,-36.677 1589.7462,-29.8006"/>
</g>
<!-- [root] oci_core_public_ip.test_reserved_ip (expand)&#45;&gt;[root] var.compartment_id -->
<g id="edge24" class="edge">
<title>[root] oci_core_public_ip.test_reserved_ip (expand)-&gt;[root] var.compartment_id</title>
<path fill="none" stroke="#000000" d="M1880.7796,-71.8314C1878.0764,-64.0463 1874.8565,-54.7729 1871.8571,-46.1347"/>
<polygon fill="#000000" stroke="#000000" points="1875.0682,-44.7119 1868.4816,-36.4133 1868.4554,-47.0081 1875.0682,-44.7119"/>
</g>
<!-- [root] oci_core_route_table.private (expand) -->
<g id="node6" class="node">
<title>[root] oci_core_route_table.private (expand)</title>
<polygon fill="none" stroke="#000000" points="845.1309,-252 669.0453,-252 669.0453,-216 845.1309,-216 845.1309,-252"/>
<text text-anchor="middle" x="757.0881" y="-229.8" font-family="Times,serif" font-size="14.00" fill="#000000">oci_core_route_table.private</text>
</g>
<!-- [root] oci_core_route_table.private (expand)&#45;&gt;[root] oci_core_nat_gateway.nat_gateway (expand) -->
<g id="edge26" class="edge">
<title>[root] oci_core_route_table.private (expand)-&gt;[root] oci_core_nat_gateway.nat_gateway (expand)</title>
<path fill="none" stroke="#000000" d="M758.3498,-215.8314C758.8846,-208.131 759.5205,-198.9743 760.1148,-190.4166"/>
<polygon fill="#000000" stroke="#000000" points="763.6082,-190.6317 760.8094,-180.4133 756.625,-190.1467 763.6082,-190.6317"/>
</g>
<!-- [root] local.anywhere (expand) -->
<g id="node36" class="node">
<title>[root] local.anywhere (expand)</title>
<ellipse fill="none" stroke="#000000" cx="505.0881" cy="-162" rx="130.7643" ry="18"/>
<text text-anchor="middle" x="505.0881" y="-157.8" font-family="Times,serif" font-size="14.00" fill="#000000">[root] local.anywhere (expand)</text>
</g>
<!-- [root] oci_core_route_table.private (expand)&#45;&gt;[root] local.anywhere (expand) -->
<g id="edge25" class="edge">
<title>[root] oci_core_route_table.private (expand)-&gt;[root] local.anywhere (expand)</title>
<path fill="none" stroke="#000000" d="M693.8232,-215.9243C656.6168,-205.2939 609.6123,-191.864 571.8201,-181.0663"/>
<polygon fill="#000000" stroke="#000000" points="572.4997,-177.6205 561.9229,-178.2385 570.5766,-184.3511 572.4997,-177.6205"/>
</g>
<!-- [root] oci_core_route_table.routetable_public (expand) -->
<g id="node7" class="node">
<title>[root] oci_core_route_table.routetable_public (expand)</title>
<polygon fill="none" stroke="#000000" points="1558.7316,-252 1323.4447,-252 1323.4447,-216 1558.7316,-216 1558.7316,-252"/>
<text text-anchor="middle" x="1441.0881" y="-229.8" font-family="Times,serif" font-size="14.00" fill="#000000">oci_core_route_table.routetable_public</text>
</g>
<!-- [root] oci_core_route_table.routetable_public (expand)&#45;&gt;[root] oci_core_internet_gateway.internet_gateway (expand) -->
<g id="edge27" class="edge">
<title>[root] oci_core_route_table.routetable_public (expand)-&gt;[root] oci_core_internet_gateway.internet_gateway (expand)</title>
<path fill="none" stroke="#000000" d="M1439.8264,-215.8314C1439.2917,-208.131 1438.6558,-198.9743 1438.0615,-190.4166"/>
<polygon fill="#000000" stroke="#000000" points="1441.5513,-190.1467 1437.3668,-180.4133 1434.5681,-190.6317 1441.5513,-190.1467"/>
</g>
<!-- [root] oci_core_security_list.private (expand) -->
<g id="node8" class="node">
<title>[root] oci_core_security_list.private (expand)</title>
<polygon fill="none" stroke="#000000" points="1045.0861,-252 863.0901,-252 863.0901,-216 1045.0861,-216 1045.0861,-252"/>
<text text-anchor="middle" x="954.0881" y="-229.8" font-family="Times,serif" font-size="14.00" fill="#000000">oci_core_security_list.private</text>
</g>
<!-- [root] oci_core_security_list.private (expand)&#45;&gt;[root] oci_core_vcn.internal (expand) -->
<g id="edge29" class="edge">
<title>[root] oci_core_security_list.private (expand)-&gt;[root] oci_core_vcn.internal (expand)</title>
<path fill="none" stroke="#000000" d="M1045.1059,-217.6133C1048.1359,-217.0689 1051.1365,-216.53 1054.0881,-216 1143.4145,-199.9613 1174.0838,-220.9236 1255.0881,-180 1275.8531,-169.5095 1273.0811,-155.8724 1293.0881,-144 1320.1628,-127.9336 1352.5856,-116.0398 1381.6293,-107.5676"/>
<polygon fill="#000000" stroke="#000000" points="1382.6653,-110.912 1391.3367,-104.8245 1380.7618,-104.1758 1382.6653,-110.912"/>
</g>
<!-- [root] local.bastion_subnet_prefix (expand) -->
<g id="node31" class="node">
<title>[root] local.bastion_subnet_prefix (expand)</title>
<ellipse fill="none" stroke="#000000" cx="1067.0881" cy="-162" rx="179.3415" ry="18"/>
<text text-anchor="middle" x="1067.0881" y="-157.8" font-family="Times,serif" font-size="14.00" fill="#000000">[root] local.bastion_subnet_prefix (expand)</text>
</g>
<!-- [root] oci_core_security_list.private (expand)&#45;&gt;[root] local.bastion_subnet_prefix (expand) -->
<g id="edge28" class="edge">
<title>[root] oci_core_security_list.private (expand)-&gt;[root] local.bastion_subnet_prefix (expand)</title>
<path fill="none" stroke="#000000" d="M982.6028,-215.8314C997.0317,-206.6377 1014.7183,-195.3684 1030.1735,-185.5208"/>
<polygon fill="#000000" stroke="#000000" points="1032.4212,-188.2388 1038.974,-179.9134 1028.6597,-182.3353 1032.4212,-188.2388"/>
</g>
<!-- [root] oci_core_security_list.securitylist_public (expand) -->
<g id="node9" class="node">
<title>[root] oci_core_security_list.securitylist_public (expand)</title>
<polygon fill="none" stroke="#000000" points="1823.1433,-252 1577.0329,-252 1577.0329,-216 1823.1433,-216 1823.1433,-252"/>
<text text-anchor="middle" x="1700.0881" y="-229.8" font-family="Times,serif" font-size="14.00" fill="#000000">oci_core_security_list.securitylist_public</text>
</g>
<!-- [root] oci_core_security_list.securitylist_public (expand)&#45;&gt;[root] oci_core_vcn.internal (expand) -->
<g id="edge30" class="edge">
<title>[root] oci_core_security_list.securitylist_public (expand)-&gt;[root] oci_core_vcn.internal (expand)</title>
<path fill="none" stroke="#000000" d="M1669.2104,-215.7755C1653.1809,-205.8569 1633.5586,-192.9843 1617.0881,-180 1598.8182,-165.5971 1598.3912,-156.9857 1579.0881,-144 1560.5625,-131.5373 1538.6939,-120.6762 1518.7904,-112.0271"/>
<polygon fill="#000000" stroke="#000000" points="1520.0757,-108.7705 1509.503,-108.0867 1517.3417,-115.2145 1520.0757,-108.7705"/>
</g>
<!-- [root] oci_core_subnet.private (expand)&#45;&gt;[root] oci_core_route_table.private (expand) -->
<g id="edge33" class="edge">
<title>[root] oci_core_subnet.private (expand)-&gt;[root] oci_core_route_table.private (expand)</title>
<path fill="none" stroke="#000000" d="M853.536,-287.8314C836.8833,-278.5368 816.4296,-267.1208 798.6496,-257.1971"/>
<polygon fill="#000000" stroke="#000000" points="800.0677,-253.9803 789.6299,-252.1628 796.6561,-260.0927 800.0677,-253.9803"/>
</g>
<!-- [root] oci_core_subnet.private (expand)&#45;&gt;[root] oci_core_security_list.private (expand) -->
<g id="edge34" class="edge">
<title>[root] oci_core_subnet.private (expand)-&gt;[root] oci_core_security_list.private (expand)</title>
<path fill="none" stroke="#000000" d="M903.2474,-287.8314C911.2393,-279.3694 920.8919,-269.1489 929.6298,-259.8971"/>
<polygon fill="#000000" stroke="#000000" points="932.3761,-262.0866 936.6978,-252.4133 927.287,-257.2802 932.3761,-262.0866"/>
</g>
<!-- [root] local.ad (expand) -->
<g id="node30" class="node">
<title>[root] local.ad (expand)</title>
<ellipse fill="none" stroke="#000000" cx="1165.0881" cy="-234" rx="102.4311" ry="18"/>
<text text-anchor="middle" x="1165.0881" y="-229.8" font-family="Times,serif" font-size="14.00" fill="#000000">[root] local.ad (expand)</text>
</g>
<!-- [root] oci_core_subnet.private (expand)&#45;&gt;[root] local.ad (expand) -->
<g id="edge31" class="edge">
<title>[root] oci_core_subnet.private (expand)-&gt;[root] local.ad (expand)</title>
<path fill="none" stroke="#000000" d="M956.1315,-287.9243C999.4097,-276.7557 1054.6621,-262.497 1097.4801,-251.4472"/>
<polygon fill="#000000" stroke="#000000" points="1098.4399,-254.8143 1107.2481,-248.9265 1096.6907,-248.0364 1098.4399,-254.8143"/>
</g>
<!-- [root] local.private_subnet_prefix (expand) -->
<g id="node32" class="node">
<title>[root] local.private_subnet_prefix (expand)</title>
<ellipse fill="none" stroke="#000000" cx="178.0881" cy="-162" rx="178.1763" ry="18"/>
<text text-anchor="middle" x="178.0881" y="-157.8" font-family="Times,serif" font-size="14.00" fill="#000000">[root] local.private_subnet_prefix (expand)</text>
</g>
<!-- [root] oci_core_subnet.private (expand)&#45;&gt;[root] local.private_subnet_prefix (expand) -->
<g id="edge32" class="edge">
<title>[root] oci_core_subnet.private (expand)-&gt;[root] local.private_subnet_prefix (expand)</title>
<path fill="none" stroke="#000000" d="M810.99,-290.7258C679.5321,-263.9886 408.3326,-208.8294 267.4494,-180.1752"/>
<polygon fill="#000000" stroke="#000000" points="268.0317,-176.722 257.5347,-178.1586 266.6365,-183.5816 268.0317,-176.722"/>
</g>
<!-- [root] oci_core_subnet.public (expand) -->
<g id="node11" class="node">
<title>[root] oci_core_subnet.public (expand)</title>
<polygon fill="none" stroke="#000000" points="1548.3289,-324 1401.8473,-324 1401.8473,-288 1548.3289,-288 1548.3289,-324"/>
<text text-anchor="middle" x="1475.0881" y="-301.8" font-family="Times,serif" font-size="14.00" fill="#000000">oci_core_subnet.public</text>
</g>
<!-- [root] oci_core_subnet.public (expand)&#45;&gt;[root] oci_core_route_table.routetable_public (expand) -->
<g id="edge36" class="edge">
<title>[root] oci_core_subnet.public (expand)-&gt;[root] oci_core_route_table.routetable_public (expand)</title>
<path fill="none" stroke="#000000" d="M1466.5085,-287.8314C1462.7523,-279.8771 1458.2624,-270.369 1454.1084,-261.5723"/>
<polygon fill="#000000" stroke="#000000" points="1457.2183,-259.9612 1449.7833,-252.4133 1450.8885,-262.9503 1457.2183,-259.9612"/>
</g>
<!-- [root] oci_core_subnet.public (expand)&#45;&gt;[root] oci_core_security_list.securitylist_public (expand) -->
<g id="edge37" class="edge">
<title>[root] oci_core_subnet.public (expand)-&gt;[root] oci_core_security_list.securitylist_public (expand)</title>
<path fill="none" stroke="#000000" d="M1531.5747,-287.9243C1562.601,-277.9959 1601.2585,-265.6255 1633.7187,-255.2382"/>
<polygon fill="#000000" stroke="#000000" points="1635.1208,-258.4645 1643.5783,-252.0831 1632.9873,-251.7975 1635.1208,-258.4645"/>
</g>
<!-- [root] oci_core_subnet.public (expand)&#45;&gt;[root] local.bastion_subnet_prefix (expand) -->
<g id="edge35" class="edge">
<title>[root] oci_core_subnet.public (expand)-&gt;[root] local.bastion_subnet_prefix (expand)</title>
<path fill="none" stroke="#000000" d="M1401.6293,-288.6836C1373.0833,-280.118 1340.876,-268.0937 1314.0881,-252 1294.1459,-240.0191 1296.4417,-227.2679 1276.0881,-216 1245.6498,-199.149 1209.8026,-187.4183 1176.4724,-179.3103"/>
<polygon fill="#000000" stroke="#000000" points="1177.2184,-175.8903 1166.6833,-177.0136 1175.6195,-182.7053 1177.2184,-175.8903"/>
</g>
<!-- [root] oci_core_vcn.internal (expand)&#45;&gt;[root] provider[&quot;registry.terraform.io/hashicorp/oci&quot;] -->
<g id="edge38" class="edge">
<title>[root] oci_core_vcn.internal (expand)-&gt;[root] provider["registry.terraform.io/hashicorp/oci"]</title>
<path fill="none" stroke="#000000" d="M1472.4529,-71.8314C1478.2109,-63.3707 1485.1652,-53.1521 1491.4608,-43.9014"/>
<polygon fill="#000000" stroke="#000000" points="1494.5016,-45.6541 1497.2344,-35.4177 1488.7146,-41.7157 1494.5016,-45.6541"/>
</g>
<!-- [root] oci_core_vcn.internal (expand)&#45;&gt;[root] var.compartment_id -->
<g id="edge39" class="edge">
<title>[root] oci_core_vcn.internal (expand)-&gt;[root] var.compartment_id</title>
<path fill="none" stroke="#000000" d="M1528.839,-80.2241C1593.1211,-70.7328 1691.9808,-55.2413 1787.0958,-36.1252"/>
<polygon fill="#000000" stroke="#000000" points="1788.0725,-39.4985 1797.1782,-34.0822 1786.6822,-32.638 1788.0725,-39.4985"/>
</g>
<!-- [root] oci_load_balancer.lb (expand) -->
<g id="node13" class="node">
<title>[root] oci_load_balancer.lb (expand)</title>
<polygon fill="none" stroke="#000000" points="1644.5987,-396 1511.5775,-396 1511.5775,-360 1644.5987,-360 1644.5987,-396"/>
<text text-anchor="middle" x="1578.0881" y="-373.8" font-family="Times,serif" font-size="14.00" fill="#000000">oci_load_balancer.lb</text>
</g>
<!-- [root] oci_load_balancer.lb (expand)&#45;&gt;[root] oci_core_public_ip.test_reserved_ip (expand) -->
<g id="edge40" class="edge">
<title>[root] oci_load_balancer.lb (expand)-&gt;[root] oci_core_public_ip.test_reserved_ip (expand)</title>
<path fill="none" stroke="#000000" d="M1633.4067,-359.9636C1688.3386,-340.0291 1772.7137,-303.7471 1832.0881,-252 1861.2685,-226.5682 1868.4697,-216.593 1881.0881,-180 1887.9266,-160.1687 1889.2512,-136.4486 1888.96,-118.3396"/>
<polygon fill="#000000" stroke="#000000" points="1892.4511,-118.0135 1888.6181,-108.1363 1885.455,-118.2479 1892.4511,-118.0135"/>
</g>
<!-- [root] oci_load_balancer.lb (expand)&#45;&gt;[root] oci_core_subnet.public (expand) -->
<g id="edge41" class="edge">
<title>[root] oci_load_balancer.lb (expand)-&gt;[root] oci_core_subnet.public (expand)</title>
<path fill="none" stroke="#000000" d="M1552.0969,-359.8314C1539.1665,-350.7927 1523.366,-339.7476 1509.4498,-330.0198"/>
<polygon fill="#000000" stroke="#000000" points="1511.2724,-327.0235 1501.0711,-324.1628 1507.2619,-332.7608 1511.2724,-327.0235"/>
</g>
<!-- [root] oci_load_balancer_backend.lb_be (expand) -->
<g id="node14" class="node">
<title>[root] oci_load_balancer_backend.lb_be (expand)</title>
<polygon fill="none" stroke="#000000" points="1207.4572,-540 1000.7191,-540 1000.7191,-504 1207.4572,-504 1207.4572,-540"/>
<text text-anchor="middle" x="1104.0881" y="-517.8" font-family="Times,serif" font-size="14.00" fill="#000000">oci_load_balancer_backend.lb_be</text>
</g>
<!-- [root] oci_load_balancer_backend.lb_be (expand)&#45;&gt;[root] oci_core_instance.stage (expand) -->
<g id="edge42" class="edge">
<title>[root] oci_load_balancer_backend.lb_be (expand)-&gt;[root] oci_core_instance.stage (expand)</title>
<path fill="none" stroke="#000000" d="M1049.3589,-503.9243C1019.2979,-493.9959 981.8431,-481.6255 950.3927,-471.2382"/>
<polygon fill="#000000" stroke="#000000" points="951.433,-467.8959 940.8399,-468.0831 949.2377,-474.5428 951.433,-467.8959"/>
</g>
<!-- [root] oci_load_balancer_backend_set.lb_bes (expand) -->
<g id="node16" class="node">
<title>[root] oci_load_balancer_backend_set.lb_bes (expand)</title>
<polygon fill="none" stroke="#000000" points="1580.4516,-468 1345.7247,-468 1345.7247,-432 1580.4516,-432 1580.4516,-468"/>
<text text-anchor="middle" x="1463.0881" y="-445.8" font-family="Times,serif" font-size="14.00" fill="#000000">oci_load_balancer_backend_set.lb_bes</text>
</g>
<!-- [root] oci_load_balancer_backend.lb_be (expand)&#45;&gt;[root] oci_load_balancer_backend_set.lb_bes (expand) -->
<g id="edge43" class="edge">
<title>[root] oci_load_balancer_backend.lb_be (expand)-&gt;[root] oci_load_balancer_backend_set.lb_bes (expand)</title>
<path fill="none" stroke="#000000" d="M1194.2156,-503.9243C1245.631,-493.6126 1310.1808,-480.6666 1363.1454,-470.0442"/>
<polygon fill="#000000" stroke="#000000" points="1364.1185,-473.4188 1373.235,-468.0207 1362.742,-466.5555 1364.1185,-473.4188"/>
</g>
<!-- [root] oci_load_balancer_backend.lb_be_ssh (expand) -->
<g id="node15" class="node">
<title>[root] oci_load_balancer_backend.lb_be_ssh (expand)</title>
<polygon fill="none" stroke="#000000" points="982.8465,-540 751.3298,-540 751.3298,-504 982.8465,-504 982.8465,-540"/>
<text text-anchor="middle" x="867.0881" y="-517.8" font-family="Times,serif" font-size="14.00" fill="#000000">oci_load_balancer_backend.lb_be_ssh</text>
</g>
<!-- [root] oci_load_balancer_backend.lb_be_ssh (expand)&#45;&gt;[root] oci_core_instance.stage (expand) -->
<g id="edge44" class="edge">
<title>[root] oci_load_balancer_backend.lb_be_ssh (expand)-&gt;[root] oci_core_instance.stage (expand)</title>
<path fill="none" stroke="#000000" d="M871.8826,-503.8314C873.937,-496.0463 876.3842,-486.7729 878.6637,-478.1347"/>
<polygon fill="#000000" stroke="#000000" points="882.0616,-478.9753 881.2291,-468.4133 875.2933,-477.1892 882.0616,-478.9753"/>
</g>
<!-- [root] oci_load_balancer_backend_set.lb_bes_ssh (expand) -->
<g id="node17" class="node">
<title>[root] oci_load_balancer_backend_set.lb_bes_ssh (expand)</title>
<polygon fill="none" stroke="#000000" points="1327.8408,-468 1068.3354,-468 1068.3354,-432 1327.8408,-432 1327.8408,-468"/>
<text text-anchor="middle" x="1198.0881" y="-445.8" font-family="Times,serif" font-size="14.00" fill="#000000">oci_load_balancer_backend_set.lb_bes_ssh</text>
</g>
<!-- [root] oci_load_balancer_backend.lb_be_ssh (expand)&#45;&gt;[root] oci_load_balancer_backend_set.lb_bes_ssh (expand) -->
<g id="edge45" class="edge">
<title>[root] oci_load_balancer_backend.lb_be_ssh (expand)-&gt;[root] oci_load_balancer_backend_set.lb_bes_ssh (expand)</title>
<path fill="none" stroke="#000000" d="M950.1862,-503.9243C997.3944,-493.6554 1056.612,-480.7743 1105.3307,-470.1768"/>
<polygon fill="#000000" stroke="#000000" points="1106.2155,-473.5663 1115.243,-468.0207 1104.7276,-466.7263 1106.2155,-473.5663"/>
</g>
<!-- [root] oci_load_balancer_backend_set.lb_bes (expand)&#45;&gt;[root] oci_load_balancer.lb (expand) -->
<g id="edge46" class="edge">
<title>[root] oci_load_balancer_backend_set.lb_bes (expand)-&gt;[root] oci_load_balancer.lb (expand)</title>
<path fill="none" stroke="#000000" d="M1492.1075,-431.8314C1506.8167,-422.6221 1524.8526,-411.3301 1540.6003,-401.4706"/>
<polygon fill="#000000" stroke="#000000" points="1542.4595,-404.436 1549.0781,-396.1628 1538.7449,-398.5029 1542.4595,-404.436"/>
</g>
<!-- [root] oci_load_balancer_backend_set.lb_bes_ssh (expand)&#45;&gt;[root] oci_load_balancer.lb (expand) -->
<g id="edge47" class="edge">
<title>[root] oci_load_balancer_backend_set.lb_bes_ssh (expand)-&gt;[root] oci_load_balancer.lb (expand)</title>
<path fill="none" stroke="#000000" d="M1293.4877,-431.9243C1357.7063,-419.7566 1441.2826,-403.9211 1501.227,-392.5632"/>
<polygon fill="#000000" stroke="#000000" points="1502.2113,-395.939 1511.3849,-390.6385 1500.9082,-389.0614 1502.2113,-395.939"/>
</g>
<!-- [root] oci_load_balancer_listener.lb_listener1 (expand) -->
<g id="node18" class="node">
<title>[root] oci_load_balancer_listener.lb_listener1 (expand)</title>
<polygon fill="none" stroke="#000000" points="1734.5115,-540 1497.6648,-540 1497.6648,-504 1734.5115,-504 1734.5115,-540"/>
<text text-anchor="middle" x="1616.0881" y="-517.8" font-family="Times,serif" font-size="14.00" fill="#000000">oci_load_balancer_listener.lb_listener1</text>
</g>
<!-- [root] oci_load_balancer_listener.lb_listener1 (expand)&#45;&gt;[root] oci_load_balancer_backend_set.lb_bes (expand) -->
<g id="edge48" class="edge">
<title>[root] oci_load_balancer_listener.lb_listener1 (expand)-&gt;[root] oci_load_balancer_backend_set.lb_bes (expand)</title>
<path fill="none" stroke="#000000" d="M1577.4798,-503.8314C1557.1988,-494.2874 1532.1644,-482.5065 1510.691,-472.4013"/>
<polygon fill="#000000" stroke="#000000" points="1511.9574,-469.1291 1501.4189,-468.038 1508.9767,-475.4629 1511.9574,-469.1291"/>
</g>
<!-- [root] oci_load_balancer_listener.lb_listener_ssh (expand) -->
<g id="node19" class="node">
<title>[root] oci_load_balancer_listener.lb_listener_ssh (expand)</title>
<polygon fill="none" stroke="#000000" points="1480.4005,-540 1225.7757,-540 1225.7757,-504 1480.4005,-504 1480.4005,-540"/>
<text text-anchor="middle" x="1353.0881" y="-517.8" font-family="Times,serif" font-size="14.00" fill="#000000">oci_load_balancer_listener.lb_listener_ssh</text>
</g>
<!-- [root] oci_load_balancer_listener.lb_listener_ssh (expand)&#45;&gt;[root] oci_load_balancer_backend_set.lb_bes_ssh (expand) -->
<g id="edge49" class="edge">
<title>[root] oci_load_balancer_listener.lb_listener_ssh (expand)-&gt;[root] oci_load_balancer_backend_set.lb_bes_ssh (expand)</title>
<path fill="none" stroke="#000000" d="M1313.9751,-503.8314C1293.3369,-494.2446 1267.8398,-482.4008 1246.0208,-472.2655"/>
<polygon fill="#000000" stroke="#000000" points="1247.4637,-469.0766 1236.9199,-468.038 1244.5147,-475.4251 1247.4637,-469.0766"/>
</g>
<!-- [root] output.example_ssh_command -->
<g id="node20" class="node">
<title>[root] output.example_ssh_command</title>
<polygon fill="none" stroke="#000000" points="1781.894,-468 1598.2822,-468 1598.2822,-432 1787.894,-432 1787.894,-462 1781.894,-468"/>
<polyline fill="none" stroke="#000000" points="1781.894,-468 1781.894,-462 "/>
<polyline fill="none" stroke="#000000" points="1787.894,-462 1781.894,-462 "/>
<text text-anchor="middle" x="1693.0881" y="-445.8" font-family="Times,serif" font-size="14.00" fill="#000000">output.example_ssh_command</text>
</g>
<!-- [root] output.example_ssh_command&#45;&gt;[root] oci_load_balancer.lb (expand) -->
<g id="edge50" class="edge">
<title>[root] output.example_ssh_command-&gt;[root] oci_load_balancer.lb (expand)</title>
<path fill="none" stroke="#000000" d="M1664.0688,-431.8314C1649.3596,-422.6221 1631.3237,-411.3301 1615.5759,-401.4706"/>
<polygon fill="#000000" stroke="#000000" points="1617.4314,-398.5029 1607.0982,-396.1628 1613.7167,-404.436 1617.4314,-398.5029"/>
</g>
<!-- [root] output.lb_public_ip -->
<g id="node21" class="node">
<title>[root] output.lb_public_ip</title>
<polygon fill="none" stroke="#000000" points="1926.1463,-468 1806.0299,-468 1806.0299,-432 1932.1463,-432 1932.1463,-462 1926.1463,-468"/>
<polyline fill="none" stroke="#000000" points="1926.1463,-468 1926.1463,-462 "/>
<polyline fill="none" stroke="#000000" points="1932.1463,-462 1926.1463,-462 "/>
<text text-anchor="middle" x="1869.0881" y="-445.8" font-family="Times,serif" font-size="14.00" fill="#000000">output.lb_public_ip</text>
</g>
<!-- [root] output.lb_public_ip&#45;&gt;[root] oci_load_balancer.lb (expand) -->
<g id="edge51" class="edge">
<title>[root] output.lb_public_ip-&gt;[root] oci_load_balancer.lb (expand)</title>
<path fill="none" stroke="#000000" d="M1805.8749,-434.1845C1802.9048,-433.4452 1799.9643,-432.7141 1797.0881,-432 1749.7644,-420.2501 1696.6655,-407.155 1654.6053,-396.8032"/>
<polygon fill="#000000" stroke="#000000" points="1655.2578,-393.3594 1644.7111,-394.3685 1653.5851,-400.1566 1655.2578,-393.3594"/>
</g>
<!-- [root] var.subnet_cidr_offset -->
<g id="node27" class="node">
<title>[root] var.subnet_cidr_offset</title>
<polygon fill="none" stroke="#000000" points="942.6506,-108 807.5257,-108 807.5257,-72 948.6506,-72 948.6506,-102 942.6506,-108"/>
<polyline fill="none" stroke="#000000" points="942.6506,-108 942.6506,-102 "/>
<polyline fill="none" stroke="#000000" points="948.6506,-102 942.6506,-102 "/>
<text text-anchor="middle" x="878.0881" y="-85.8" font-family="Times,serif" font-size="14.00" fill="#000000">var.subnet_cidr_offset</text>
</g>
<!-- [root] var.vcn_cidr -->
<g id="node29" class="node">
<title>[root] var.vcn_cidr</title>
<polygon fill="none" stroke="#000000" points="405.4445,-108 324.7318,-108 324.7318,-72 411.4445,-72 411.4445,-102 405.4445,-108"/>
<polyline fill="none" stroke="#000000" points="405.4445,-108 405.4445,-102 "/>
<polyline fill="none" stroke="#000000" points="411.4445,-102 405.4445,-102 "/>
<text text-anchor="middle" x="368.0881" y="-85.8" font-family="Times,serif" font-size="14.00" fill="#000000">var.vcn_cidr</text>
</g>
<!-- [root] local.ad (expand)&#45;&gt;[root] data.oci_identity_availability_domain.ad (expand) -->
<g id="edge3" class="edge">
<title>[root] local.ad (expand)-&gt;[root] data.oci_identity_availability_domain.ad (expand)</title>
<path fill="none" stroke="#000000" d="M1249.0719,-223.6458C1345.0476,-211.8132 1503.3845,-192.2922 1616.1596,-178.3884"/>
<polygon fill="#000000" stroke="#000000" points="1616.7466,-181.8427 1626.2432,-177.1453 1615.89,-174.8953 1616.7466,-181.8427"/>
</g>
<!-- [root] local.bastion_subnet_prefix (expand)&#45;&gt;[root] var.subnet_cidr_offset -->
<g id="edge4" class="edge">
<title>[root] local.bastion_subnet_prefix (expand)-&gt;[root] var.subnet_cidr_offset</title>
<path fill="none" stroke="#000000" d="M1021.3365,-144.5708C995.3414,-134.6679 962.5692,-122.1833 934.9335,-111.6554"/>
<polygon fill="#000000" stroke="#000000" points="935.9831,-108.3099 925.3922,-108.0206 933.4911,-114.8513 935.9831,-108.3099"/>
</g>
<!-- [root] local.bastion_subnet_prefix (expand)&#45;&gt;[root] var.vcn_cidr -->
<g id="edge5" class="edge">
<title>[root] local.bastion_subnet_prefix (expand)-&gt;[root] var.vcn_cidr</title>
<path fill="none" stroke="#000000" d="M941.7175,-149.0863C787.385,-133.1894 532.2002,-106.9042 421.7689,-95.5294"/>
<polygon fill="#000000" stroke="#000000" points="421.8482,-92.0191 411.5421,-94.4759 421.1309,-98.9822 421.8482,-92.0191"/>
</g>
<!-- [root] local.private_subnet_prefix (expand)&#45;&gt;[root] var.subnet_cidr_offset -->
<g id="edge6" class="edge">
<title>[root] local.private_subnet_prefix (expand)-&gt;[root] var.subnet_cidr_offset</title>
<path fill="none" stroke="#000000" d="M303.2341,-149.1278C446.2886,-134.4137 676.2522,-110.7603 797.4136,-98.298"/>
<polygon fill="#000000" stroke="#000000" points="797.7803,-101.7788 807.3697,-97.2739 797.064,-94.8155 797.7803,-101.7788"/>
</g>
<!-- [root] local.private_subnet_prefix (expand)&#45;&gt;[root] var.vcn_cidr -->
<g id="edge7" class="edge">
<title>[root] local.private_subnet_prefix (expand)-&gt;[root] var.vcn_cidr</title>
<path fill="none" stroke="#000000" d="M224.0818,-144.5708C251.6113,-134.1386 286.7015,-120.8412 315.3509,-109.9846"/>
<polygon fill="#000000" stroke="#000000" points="316.6888,-113.2206 324.7996,-106.4041 314.2083,-106.6748 316.6888,-113.2206"/>
</g>
<!-- [root] meta.count&#45;boundary (EachMode fixup) -->
<g id="node33" class="node">
<title>[root] meta.count-boundary (EachMode fixup)</title>
<ellipse fill="none" stroke="#000000" cx="1689.0881" cy="-594" rx="191.4666" ry="18"/>
<text text-anchor="middle" x="1689.0881" y="-589.8" font-family="Times,serif" font-size="14.00" fill="#000000">[root] meta.count-boundary (EachMode fixup)</text>
</g>
<!-- [root] meta.count&#45;boundary (EachMode fixup)&#45;&gt;[root] oci_load_balancer_backend.lb_be (expand) -->
<g id="edge10" class="edge">
<title>[root] meta.count-boundary (EachMode fixup)-&gt;[root] oci_load_balancer_backend.lb_be (expand)</title>
<path fill="none" stroke="#000000" d="M1559.4287,-580.7208C1466.9969,-570.8861 1339.5458,-556.5804 1217.4247,-540.013"/>
<polygon fill="#000000" stroke="#000000" points="1217.8969,-536.5451 1207.5157,-538.6621 1216.9512,-543.4809 1217.8969,-536.5451"/>
</g>
<!-- [root] meta.count&#45;boundary (EachMode fixup)&#45;&gt;[root] oci_load_balancer_backend.lb_be_ssh (expand) -->
<g id="edge11" class="edge">
<title>[root] meta.count-boundary (EachMode fixup)-&gt;[root] oci_load_balancer_backend.lb_be_ssh (expand)</title>
<path fill="none" stroke="#000000" d="M1552.4825,-581.3854C1531.2643,-579.5185 1509.5895,-577.6649 1489.0881,-576 1271.5808,-558.336 1213.9516,-563.6351 993.1183,-540.0692"/>
<polygon fill="#000000" stroke="#000000" points="993.477,-536.5877 983.1602,-538.9989 992.7289,-543.5476 993.477,-536.5877"/>
</g>
<!-- [root] meta.count&#45;boundary (EachMode fixup)&#45;&gt;[root] oci_load_balancer_listener.lb_listener1 (expand) -->
<g id="edge12" class="edge">
<title>[root] meta.count-boundary (EachMode fixup)-&gt;[root] oci_load_balancer_listener.lb_listener1 (expand)</title>
<path fill="none" stroke="#000000" d="M1670.6671,-575.8314C1661.9352,-567.219 1651.3564,-556.7851 1641.8458,-547.4048"/>
<polygon fill="#000000" stroke="#000000" points="1644.0807,-544.6931 1634.5032,-540.1628 1639.1652,-549.6769 1644.0807,-544.6931"/>
</g>
<!-- [root] meta.count&#45;boundary (EachMode fixup)&#45;&gt;[root] oci_load_balancer_listener.lb_listener_ssh (expand) -->
<g id="edge13" class="edge">
<title>[root] meta.count-boundary (EachMode fixup)-&gt;[root] oci_load_balancer_listener.lb_listener_ssh (expand)</title>
<path fill="none" stroke="#000000" d="M1612.0029,-577.4817C1562.9495,-566.9703 1499.0978,-553.2878 1447.0782,-542.1407"/>
<polygon fill="#000000" stroke="#000000" points="1447.6863,-538.6917 1437.1749,-540.0186 1446.2196,-545.5363 1447.6863,-538.6917"/>
</g>
<!-- [root] meta.count&#45;boundary (EachMode fixup)&#45;&gt;[root] output.example_ssh_command -->
<g id="edge14" class="edge">
<title>[root] meta.count-boundary (EachMode fixup)-&gt;[root] output.example_ssh_command</title>
<path fill="none" stroke="#000000" d="M1714.5933,-575.9627C1725.5635,-566.6284 1737.2026,-554.2089 1743.0881,-540 1749.2111,-525.2179 1748.9258,-518.897 1743.0881,-504 1738.9123,-493.3439 1731.5369,-483.5335 1723.7122,-475.2816"/>
<polygon fill="#000000" stroke="#000000" points="1726.0611,-472.6825 1716.479,-468.162 1721.1506,-477.6713 1726.0611,-472.6825"/>
</g>
<!-- [root] meta.count&#45;boundary (EachMode fixup)&#45;&gt;[root] output.lb_public_ip -->
<g id="edge15" class="edge">
<title>[root] meta.count-boundary (EachMode fixup)-&gt;[root] output.lb_public_ip</title>
<path fill="none" stroke="#000000" d="M1713.2628,-575.9899C1727.0806,-565.6021 1744.6747,-552.2168 1760.0881,-540 1787.3738,-518.3731 1817.894,-493.0751 1839.6831,-474.8175"/>
<polygon fill="#000000" stroke="#000000" points="1842.1727,-477.2973 1847.5816,-468.1871 1837.6721,-471.9359 1842.1727,-477.2973"/>
</g>
<!-- [root] local.all_protocols (expand) -->
<g id="node34" class="node">
<title>[root] local.all_protocols (expand)</title>
<ellipse fill="none" stroke="#000000" cx="1972.0881" cy="-522" rx="143.5428" ry="18"/>
<text text-anchor="middle" x="1972.0881" y="-517.8" font-family="Times,serif" font-size="14.00" fill="#000000">[root] local.all_protocols (expand)</text>
</g>
<!-- [root] meta.count&#45;boundary (EachMode fixup)&#45;&gt;[root] local.all_protocols (expand) -->
<g id="edge8" class="edge">
<title>[root] meta.count-boundary (EachMode fixup)-&gt;[root] local.all_protocols (expand)</title>
<path fill="none" stroke="#000000" d="M1755.7968,-577.0282C1798.639,-566.1284 1854.3176,-551.9628 1898.4536,-540.7339"/>
<polygon fill="#000000" stroke="#000000" points="1899.4307,-544.0968 1908.259,-538.2392 1897.7048,-537.313 1899.4307,-544.0968"/>
</g>
<!-- [root] local.tcp_protocol (expand) -->
<g id="node35" class="node">
<title>[root] local.tcp_protocol (expand)</title>
<ellipse fill="none" stroke="#000000" cx="2276.0881" cy="-522" rx="142.321" ry="18"/>
<text text-anchor="middle" x="2276.0881" y="-517.8" font-family="Times,serif" font-size="14.00" fill="#000000">[root] local.tcp_protocol (expand)</text>
</g>
<!-- [root] meta.count&#45;boundary (EachMode fixup)&#45;&gt;[root] local.tcp_protocol (expand) -->
<g id="edge9" class="edge">
<title>[root] meta.count-boundary (EachMode fixup)-&gt;[root] local.tcp_protocol (expand)</title>
<path fill="none" stroke="#000000" d="M1805.7623,-579.689C1909.7915,-566.9291 2061.0723,-548.3733 2163.7586,-535.7781"/>
<polygon fill="#000000" stroke="#000000" points="2164.3522,-539.2316 2173.8517,-534.5401 2163.4999,-532.2836 2164.3522,-539.2316"/>
</g>
<!-- [root] provider[&quot;registry.terraform.io/hashicorp/oci&quot;] (close) -->
<g id="node37" class="node">
<title>[root] provider["registry.terraform.io/hashicorp/oci"] (close)</title>
<ellipse fill="none" stroke="#000000" cx="1236.0881" cy="-594" rx="244.2872" ry="18"/>
<text text-anchor="middle" x="1236.0881" y="-589.8" font-family="Times,serif" font-size="14.00" fill="#000000">[root] provider["registry.terraform.io/hashicorp/oci"] (close)</text>
</g>
<!-- [root] provider[&quot;registry.terraform.io/hashicorp/oci&quot;] (close)&#45;&gt;[root] oci_load_balancer_backend.lb_be (expand) -->
<g id="edge52" class="edge">
<title>[root] provider["registry.terraform.io/hashicorp/oci"] (close)-&gt;[root] oci_load_balancer_backend.lb_be (expand)</title>
<path fill="none" stroke="#000000" d="M1203.1195,-576.0171C1185.7948,-566.5673 1164.3788,-554.8858 1145.8992,-544.806"/>
<polygon fill="#000000" stroke="#000000" points="1147.549,-541.7191 1137.094,-540.0032 1144.197,-547.8644 1147.549,-541.7191"/>
</g>
<!-- [root] provider[&quot;registry.terraform.io/hashicorp/oci&quot;] (close)&#45;&gt;[root] oci_load_balancer_backend.lb_be_ssh (expand) -->
<g id="edge53" class="edge">
<title>[root] provider["registry.terraform.io/hashicorp/oci"] (close)-&gt;[root] oci_load_balancer_backend.lb_be_ssh (expand)</title>
<path fill="none" stroke="#000000" d="M1149.574,-577.1192C1095.7187,-566.6108 1026.1717,-553.0407 969.5613,-541.9948"/>
<polygon fill="#000000" stroke="#000000" points="969.9958,-538.5136 959.5105,-540.0336 968.6551,-545.384 969.9958,-538.5136"/>
</g>
<!-- [root] provider[&quot;registry.terraform.io/hashicorp/oci&quot;] (close)&#45;&gt;[root] oci_load_balancer_listener.lb_listener1 (expand) -->
<g id="edge54" class="edge">
<title>[root] provider["registry.terraform.io/hashicorp/oci"] (close)-&gt;[root] oci_load_balancer_listener.lb_listener1 (expand)</title>
<path fill="none" stroke="#000000" d="M1324.7017,-577.2101C1380.3663,-566.6631 1452.4503,-553.0051 1510.9946,-541.9125"/>
<polygon fill="#000000" stroke="#000000" points="1511.8398,-545.3147 1521.0134,-540.0142 1510.5366,-538.437 1511.8398,-545.3147"/>
</g>
<!-- [root] provider[&quot;registry.terraform.io/hashicorp/oci&quot;] (close)&#45;&gt;[root] oci_load_balancer_listener.lb_listener_ssh (expand) -->
<g id="edge55" class="edge">
<title>[root] provider["registry.terraform.io/hashicorp/oci"] (close)-&gt;[root] oci_load_balancer_listener.lb_listener_ssh (expand)</title>
<path fill="none" stroke="#000000" d="M1265.3104,-576.0171C1280.3871,-566.7391 1298.9596,-555.3099 1315.1324,-545.3574"/>
<polygon fill="#000000" stroke="#000000" points="1317.1507,-548.225 1323.8329,-540.0032 1313.482,-542.2634 1317.1507,-548.225"/>
</g>
<!-- [root] root -->
<g id="node38" class="node">
<title>[root] root</title>
<ellipse fill="none" stroke="#000000" cx="1462.0881" cy="-666" rx="50.9823" ry="18"/>
<text text-anchor="middle" x="1462.0881" y="-661.8" font-family="Times,serif" font-size="14.00" fill="#000000">[root] root</text>
</g>
<!-- [root] root&#45;&gt;[root] meta.count&#45;boundary (EachMode fixup) -->
<g id="edge56" class="edge">
<title>[root] root-&gt;[root] meta.count-boundary (EachMode fixup)</title>
<path fill="none" stroke="#000000" d="M1500.0828,-653.9488C1534.0133,-643.1867 1584.4201,-627.1987 1624.6463,-614.4397"/>
<polygon fill="#000000" stroke="#000000" points="1625.9002,-617.7139 1634.374,-611.3543 1623.7838,-611.0415 1625.9002,-617.7139"/>
</g>
<!-- [root] root&#45;&gt;[root] provider[&quot;registry.terraform.io/hashicorp/oci&quot;] (close) -->
<g id="edge57" class="edge">
<title>[root] root-&gt;[root] provider["registry.terraform.io/hashicorp/oci"] (close)</title>
<path fill="none" stroke="#000000" d="M1424.0059,-653.8676C1390.4197,-643.1676 1340.7628,-627.3477 1300.9283,-614.657"/>
<polygon fill="#000000" stroke="#000000" points="1301.8804,-611.2871 1291.2898,-611.5864 1299.7555,-617.9568 1301.8804,-611.2871"/>
</g>
</g>
</svg>